<?xml version="1.0" standalone="no"?>
<!DOCTYPE svg PUBLIC "-//W3C//DTD SVG 20010904//EN"
 "http://www.w3.org/TR/2001/REC-SVG-20010904/DTD/svg10.dtd">
<svg version="1.0" xmlns="http://www.w3.org/2000/svg"
 width="128.000000pt" height="128.000000pt" viewBox="0 0 128.000000 128.000000"
 preserveAspectRatio="xMidYMid meet">

<g transform="translate(0.000000,128.000000) scale(0.100000,-0.100000)"
fill="#000000" stroke="none">
<path d="M555 1130 c-240 -78 -357 -372 -232 -581 46 -77 118 -119 204 -119
43 0 77 7 108 21 69 33 73 45 12 45 -130 2 -230 115 -229 259 1 149 126 267
299 282 116 9 224 -28 333 -116 l45 -36 -22 31 c-44 61 -161 162 -228 195 -87
42 -197 50 -290 19z"/>
<path d="M338 1032 c-125 -104 -197 -225 -206 -344 -15 -209 132 -389 350
-429 148 -27 296 39 349 156 36 78 16 212 -38 257 -15 12 -16 10 -9 -15 10
-40 -17 -124 -54 -169 -89 -108 -265 -119 -378 -23 -65 55 -112 168 -112 271
0 99 56 231 133 312 43 45 32 40 -35 -16z"/>
<path d="M657 999 c-79 -19 -154 -75 -190 -143 -30 -57 -30 -155 1 -213 30
-58 39 -59 40 -8 3 218 308 306 457 132 122 -142 104 -370 -42 -537 l-48 -54
46 31 c71 49 164 155 201 230 31 63 33 75 33 163 -1 129 -26 193 -109 276
-110 109 -254 155 -389 123z"/>
<path d="M710 831 c-35 -11 -88 -39 -94 -49 -3 -5 15 -9 39 -10 205 -3 301
-281 151 -435 -140 -144 -383 -135 -557 21 -81 73 -42 13 56 -85 61 -61 100
-91 151 -115 63 -30 77 -33 164 -33 87 0 101 3 168 34 121 57 206 172 233 315
25 137 -37 283 -143 337 -45 23 -129 33 -168 20z"/>
</g>
</svg>
